<svg enable-background="new 0 0 235 267" height="267" viewBox="0 0 235 267" width="235" xmlns="http://www.w3.org/2000/svg" xmlns:xlink="http://www.w3.org/1999/xlink"><linearGradient id="a"><stop offset="0" stop-color="#23286b"/><stop offset="1" stop-color="#151a4f"/></linearGradient><linearGradient id="b" gradientUnits="userSpaceOnUse" x1="11.31645858" x2="218.24564336" xlink:href="#a" y1="95.42856526" y2="95.42856526"/><linearGradient id="c" gradientUnits="userSpaceOnUse" x1="224.34438616" x2="-19.85558138" xlink:href="#a" y1="251.8272827" y2="243.97108538"/><linearGradient id="d"><stop offset="0" stop-color="#a1c3fc"/><stop offset=".6955" stop-color="#81aef2"/><stop offset="1" stop-color="#78a9ef"/></linearGradient><linearGradient id="e" gradientUnits="userSpaceOnUse" x1="544.00735402" x2="-90.15644464" xlink:href="#d" y1="299.3384553" y2="99.82623326"/><linearGradient id="f" gradientUnits="userSpaceOnUse" x1="196.85379738" x2="-118.93280396" xlink:href="#d" y1="174.17825904" y2="9.8403856"/><linearGradient id="g"><stop offset=".1291" stop-color="#428dfc"/><stop offset=".9987" stop-color="#1d72d8"/></linearGradient><linearGradient id="h" gradientUnits="userSpaceOnUse" x1="11.61036506" x2="207.07619498" xlink:href="#g" y1="19.13127182" y2="19.13127182"/><linearGradient id="i" gradientUnits="userSpaceOnUse" x1="45.19622564" x2="252.2723245" xlink:href="#g" y1="209.94774174" y2="209.94774174"/><linearGradient id="j" gradientUnits="userSpaceOnUse" x1="11.985452" x2="261.00727578" y1="57.35239658" y2="57.35239658"><stop offset="0" stop-color="#a1c3fc"/><stop offset=".6955" stop-color="#81aef2"/><stop offset=".7528" stop-color="#7fadf1"/><stop offset="1" stop-color="#78a9ef"/></linearGradient><linearGradient id="k"><stop offset=".0898" stop-color="#eee"/><stop offset=".8178" stop-color="#d6d7d8"/></linearGradient><linearGradient id="l" gradientUnits="userSpaceOnUse" x1="64.94797606" x2="170.61711892" xlink:href="#k" y1="209.94774174" y2="209.94774174"/><linearGradient id="m" gradientUnits="userSpaceOnUse" x1="26.12406854" x2="224.35984012" xlink:href="#k" y1="58.87163192" y2="55.70495318"/><linearGradient id="n" gradientUnits="userSpaceOnUse" x1="18.81172708" x2="210.16592076" xlink:href="#k" y1="95.50188524" y2="95.50188524"/><linearGradient id="o" gradientUnits="userSpaceOnUse" x1="213.29818142" x2="75.245406" xlink:href="#k" y1="136.14835078" y2="129.18251836"/><linearGradient id="p" gradientUnits="userSpaceOnUse" x1="235.08364414" x2="-66.38715946" xlink:href="#k" y1="248.50688672" y2="247.87359654"/><linearGradient id="q" gradientUnits="userSpaceOnUse" x1="223.40286406" x2="132.86119894" xlink:href="#k" y1="27.8939199" y2="13.33125574"/><linearGradient id="r" gradientUnits="userSpaceOnUse" x1="216.70855106" x2="-29.02785908" xlink:href="#k" y1="173.34489152" y2="169.5449226"/><path d="m217.973 95.399c0 10.551-8.513 19.05-19.082 19.05-.147 0-.147 0-.294 0h-187.295v-7.767h187.883c6.312-.293 11.155-5.569 10.862-11.723-.294-6.008-5.284-10.844-11.302-10.844-.147 0-.294 0-.44 0h-187.003v-7.913h187.442.147c10.569.147 19.082 8.646 19.082 19.197z" fill="url(#b)"/><path d="m7.926 247.95c0 6.008 4.844 10.991 10.862 11.284h187.883v7.766h-187.442-.147c-10.569 0-19.082-8.499-19.082-19.05s8.513-19.05 19.082-19.05h187.736v7.767h-187.002c-.147 0-.294 0-.44 0-6.312-.148-11.45 4.981-11.45 11.283z" fill="url(#c)"/><path d="m35.962 171.894c0 6.008 4.844 10.991 10.862 11.284h186.855v7.62h-187.442c-10.568-.147-19.082-8.793-18.935-19.344.147-10.405 8.513-18.757 18.935-18.904h187.589v8.06h-185.975c-.147 0-.294 0-.44 0-6.312 0-11.449 4.983-11.449 11.284z" fill="url(#e)"/><path d="m109.647 132.621v.733c0 6.008 4.844 10.991 10.862 11.284h.44 93.648v7.767h-187.589c-10.568 0-19.082-8.646-19.082-19.197s8.513-19.05 19.082-19.05h187.442v7.767h-93.207c-.147 0-.294 0-.44 0-.294 0-.44 0-.734 0-5.284.293-9.541 4.396-10.422 9.525z" fill="url(#f)"/><path d="m128.435 18.025v1.172c0 6.008 4.844 10.991 10.862 11.284h67.52v7.767h-176.139c-10.568 0-19.082-8.646-19.082-19.197s8.513-18.904 19.082-19.051h175.993v7.767h-66.64c-.147 0-.294 0-.44 0s-.44 0-.587 0c-5.284.293-9.834 4.25-10.568 9.525-.001.293-.001.586-.001.733z" fill="url(#h)"/><path d="m235 209.702c0 10.551-8.513 19.05-19.082 19.05 0 0-.147 0-.294 0h-187.442v-7.767h102.308c6.018-.293 10.862-5.276 10.862-11.284 0-.293 0-.586 0-.733-.44-5.569-4.844-10.111-10.568-10.551-.294 0-.44 0-.734 0-.147 0-.294 0-.44 0h-101.281v-7.767h187.442.294c10.275.002 18.935 8.501 18.935 19.052z" fill="url(#i)"/><path d="m230.009 57.298c0 10.551-8.513 19.05-19.082 19.05h-.294-187.588v-7.767h186.855c6.312-.293 11.155-5.569 10.862-11.723-.294-6.008-5.284-10.844-11.302-10.844-.147 0-.294 0-.44 0h-185.975v-7.767h187.442.294c10.568-.146 19.228 8.5 19.228 19.051z" fill="url(#j)"/><path d="m141.206 209.702c0 6.008-4.844 10.991-10.862 11.284h-94.676v-22.568h94.969c5.578.44 10.128 4.836 10.568 10.551.001.147.001.44.001.733z" fill="url(#l)"/><path d="m220.909 57.298c.147-6.008-4.697-11.137-10.715-11.284-.147 0-.294 0-.44 0h-178.196v22.568h178.488.44c6.019-.44 10.423-5.422 10.423-11.284z" fill="url(#m)"/><path d="m209.9 95.399c.147-6.155-4.697-11.137-10.862-11.284-.147 0-.294 0-.44 0h-179.81v22.567h180.25.44c6.019-.439 10.569-5.421 10.422-11.283z" fill="url(#n)"/><path d="m206.818 122.216v22.567h-86.455c-6.018-.293-10.862-5.276-10.862-11.284 0-.293 0-.586 0-.733 0-.293 0-.586.147-.879.734-5.276 5.137-9.232 10.422-9.525h86.749v-.146z" fill="url(#o)"/><path d="m200.212 236.666h-180.837c-.147 0-.294 0-.44 0-6.312.293-11.156 5.422-10.862 11.723.147 5.715 4.697 10.405 10.422 10.844h.44 181.277z" fill="url(#p)"/><path d="m199.625 7.913v22.567h-60.475c-6.018-.293-10.862-5.276-10.862-11.284 0-.44 0-.733 0-1.172 0-.147 0-.44 0-.586.881-5.276 5.284-9.232 10.568-9.525z" fill="url(#q)"/><path d="m224.872 160.61h-177.755c-.147 0-.294 0-.44 0-6.312.293-11.009 5.715-10.715 11.87.294 5.569 4.697 10.111 10.275 10.698h.44 178.048v-22.568z" fill="url(#r)"/></svg>