<svg width="567" height="540" viewBox="0 0 567 540" fill="none" xmlns="http://www.w3.org/2000/svg">
<rect x="66" y="116" width="501" height="423" rx="24" fill="#B1C2FC" fill-opacity="0.23"/>
<ellipse cx="283" cy="317.5" rx="158" ry="150.5" fill="#0F2DCA" fill-opacity="0.7"/>
<ellipse cx="252" cy="330.5" rx="127" ry="121.5" fill="white"/>
<ellipse cx="247" cy="313.5" rx="49" ry="45.5" fill="white" fill-opacity="0.2"/>
<ellipse cx="453" cy="214" rx="104" ry="99" fill="#E8EBFF" fill-opacity="0.2"/>
<ellipse cx="508" cy="480" rx="57" ry="59" fill="#8796E4" fill-opacity="0.3"/>
<circle cx="390" cy="452" r="26" fill="#FDFDFF" fill-opacity="0.2"/>
<rect x="548" y="439" width="82" height="81" rx="8" transform="rotate(90 548 439)" fill="#2054BC" fill-opacity="0.3"/>
<rect x="197" y="278" width="19" height="19" rx="9.5" fill="#DD39AF" fill-opacity="0.05"/>
<rect x="197" y="300" width="19" height="19" rx="9.5" fill="#DD39AF" fill-opacity="0.2"/>
<rect x="224" y="300" width="18" height="19" rx="9" fill="#DD39AF" fill-opacity="0.05"/>
<rect x="197" y="322" width="19" height="18" rx="9" fill="#DD39AF" fill-opacity="0.3"/>
<rect x="224" y="322" width="18" height="18" rx="9" fill="#DD39AF" fill-opacity="0.2"/>
<rect x="252" y="322" width="17" height="18" rx="8.5" fill="#DD39AF" fill-opacity="0.05"/>
<rect x="197" y="344" width="19" height="18" rx="9" fill="#DD39AF" fill-opacity="0.7"/>
<rect x="224" y="344" width="18" height="18" rx="9" fill="#DD39AF" fill-opacity="0.3"/>
<rect x="252" y="344" width="17" height="18" rx="8.5" fill="#DD39AF" fill-opacity="0.2"/>
<rect x="277" y="344" width="19" height="18" rx="9" fill="#DD39AF" fill-opacity="0.05"/>
<rect x="197" y="366" width="19" height="18" rx="9" fill="#DD39AF" fill-opacity="0.9"/>
<rect x="224" y="366" width="18" height="18" rx="9" fill="#DD39AF" fill-opacity="0.7"/>
<rect x="252" y="366" width="17" height="18" rx="8.5" fill="#DD39AF" fill-opacity="0.3"/>
<rect x="277" y="366" width="19" height="18" rx="9" fill="#DD39AF" fill-opacity="0.2"/>
<rect x="301" y="366" width="20" height="18" rx="9" fill="#DD39AF" fill-opacity="0.05"/>
<rect x="379" y="143" width="143" height="142" rx="10" fill="#E8EBFF" fill-opacity="0.3"/>
<path fill-rule="evenodd" clip-rule="evenodd" d="M566.661 269.572C566.661 418.453 439.81 539.144 283.331 539.144C126.851 539.144 0 418.453 0 269.572C0 213.098 18.2526 160.679 49.4513 117.366C60.006 139.814 75.4292 164.213 92.6087 164.213C124.425 164.213 142.462 117.688 142.462 71.4703C142.462 53.0896 195.811 50.8368 223.599 51.4656C228.274 52.3798 232.155 52.9218 234.784 52.9218C245.743 52.9218 238.199 51.7959 223.599 51.4656C200.403 46.9298 157.643 33.2324 151.074 31.1104C190.554 11.2473 235.562 0 283.331 0C439.81 0 566.661 120.692 566.661 269.572ZM481.779 296.156C481.779 391.976 400.134 469.653 299.421 469.653C198.708 469.653 117.063 391.976 117.063 296.156C117.063 200.337 198.708 122.66 299.421 122.66C400.134 122.66 481.779 200.337 481.779 296.156ZM102.987 102.194C102.987 107.21 98.9211 111.276 93.9051 111.276C88.889 111.276 84.8228 107.21 84.8228 102.194C84.8228 97.1777 88.889 93.1114 93.9051 93.1114C98.9211 93.1114 102.987 97.1777 102.987 102.194Z" fill="#D2D6FB"/>
</svg>
