<svg width="93" height="84" viewBox="0 0 93 84" fill="none" xmlns="http://www.w3.org/2000/svg">
<path d="M43.3868 83.8402C61.2735 83.8402 75.7736 69.3577 75.7736 51.4926C75.7736 33.6276 61.2735 19.1451 43.3868 19.1451C25.5001 19.1451 11 33.6276 11 51.4926C11 69.3577 25.5001 83.8402 43.3868 83.8402Z" fill="#6C63FF"/>
<path d="M54.6731 13.0529C51.7407 12.6804 48.7728 12.6804 45.8403 13.0529C39.3073 13.9097 33.1575 16.6203 28.1206 20.8632C23.0837 25.1061 19.3711 30.7031 17.4234 36.9901C16.5376 39.8553 16.036 42.8251 15.9316 45.822C15.9169 46.2386 15.9071 46.6601 15.9071 47.0816C15.9162 56.1778 19.5381 64.8989 25.9779 71.3309C32.4178 77.763 41.1495 81.3805 50.2568 81.3896C50.9879 81.3896 51.7191 81.3651 52.4404 81.3209C54.1337 81.2148 55.8166 80.9822 57.4751 80.625C65.3949 78.924 72.4582 74.4822 77.4172 68.0844C82.3763 61.6865 84.9122 53.7441 84.577 45.6599C84.2417 37.5758 81.057 29.87 75.5852 23.9036C70.1134 17.9372 62.7067 14.0941 54.6731 13.0529H54.6731ZM61.0081 78.6351H61.0033C58.2369 79.578 55.3574 80.1499 52.4404 80.3358C51.719 80.3848 50.9879 80.4093 50.2567 80.4093C41.4102 80.3985 32.9292 76.8838 26.6738 70.6359C20.4184 64.3881 16.8993 55.9173 16.8885 47.0816C16.8885 46.6601 16.8983 46.2386 16.913 45.822C17.2504 37.2111 20.9096 29.0642 27.1246 23.0869C33.3397 17.1096 41.6288 13.7652 50.2567 13.7538C58.1621 13.7542 65.8106 16.5578 71.8395 21.665C77.8684 26.7722 81.8862 33.8513 83.1771 41.6411C84.4679 49.4309 82.948 57.4255 78.888 64.2005C74.8281 70.9754 68.4918 76.0908 61.0081 78.6351H61.0081Z" fill="#3F3D56"/>
<path d="M50.7474 15.7143H49.766V22.5759H50.7474V15.7143Z" fill="#3F3D56"/>
<path d="M28.3967 24.555L27.7028 25.2481L32.5605 30.1L33.2545 29.4069L28.3967 24.555Z" fill="#3F3D56"/>
<path d="M14.0721 49.0114V49.9917H20.9421V49.0114H14.0721Z" fill="#3F3D56"/>
<path d="M27.7028 68.9151L28.3967 69.6082L33.2545 64.7563L32.5605 64.0632L27.7028 68.9151Z" fill="#3F3D56"/>
<path d="M67.2589 29.4068L67.9529 30.1L72.8107 25.2481L72.1167 24.555L67.2589 29.4068Z" fill="#3F3D56"/>
<path d="M74.7922 46.5915V47.5717H81.6621V46.5915H74.7922Z" fill="#3F3D56"/>
<path d="M67.9529 64.0632L67.2589 64.7563L72.1167 69.6082L72.8107 68.915L67.9529 64.0632Z" fill="#3F3D56"/>
<path d="M50.7474 71.5873H49.766V78.4489H50.7474V71.5873Z" fill="#3F3D56"/>
<path d="M51.7289 45.1211C51.3042 44.803 50.7876 44.631 50.2568 44.631C49.7259 44.631 49.2093 44.803 48.7846 45.1211C48.4939 45.3417 48.2545 45.6226 48.0829 45.9445C47.8656 46.359 47.7715 46.827 47.812 47.2932C47.8524 47.7594 48.0256 48.2043 48.3111 48.5753C48.5966 48.9462 48.9825 49.2279 49.4231 49.3868C49.8638 49.5457 50.3408 49.5753 50.7977 49.4721C51.2547 49.3689 51.6725 49.1372 52.0018 48.8044C52.3311 48.4716 52.5582 48.0516 52.6561 47.594C52.754 47.1364 52.7188 46.6604 52.5545 46.2222C52.3902 45.784 52.1037 45.4019 51.7289 45.1211H51.7289ZM50.2568 48.5519C49.8667 48.5508 49.4929 48.3955 49.2171 48.12C48.9412 47.8445 48.7858 47.4712 48.7846 47.0816C48.7865 46.7842 48.8771 46.4941 49.0447 46.2484C49.1885 46.0404 49.3836 45.873 49.6111 45.7623C49.8386 45.6517 50.0909 45.6015 50.3435 45.6168C50.5961 45.632 50.8405 45.712 51.053 45.8492C51.2656 45.9863 51.4391 46.1759 51.5568 46.3997C51.6745 46.6234 51.7325 46.8737 51.725 47.1263C51.7175 47.379 51.6449 47.6254 51.5142 47.8418C51.3835 48.0582 51.1991 48.2373 50.9788 48.3617C50.7585 48.4861 50.5098 48.5516 50.2568 48.5519V48.5519Z" fill="#3F3D56"/>
<path d="M54.6732 4.44162H45.8404V13.2637H54.6732V4.44162Z" fill="#3F3D56"/>
<path d="M45.4776 8.33195C51.9818 8.33195 57.2546 6.46678 57.2546 4.16597C57.2546 1.86517 51.9818 0 45.4776 0C38.9733 0 33.7006 1.86517 33.7006 4.16597C33.7006 6.46678 38.9733 8.33195 45.4776 8.33195Z" fill="#3F3D56"/>
<path d="M51.7289 28.4572H48.7846V45.1211H51.7289V28.4572Z" fill="#3F3D56"/>
<path d="M92.2533 82.3163H0V83.2965H92.2533V82.3163Z" fill="#3F3D56"/>
</svg>
